/* XPM */
static char * command_desk_icon_xpm[] = {
"16 16 6 1",
" 	c None",
".	c #08101C",
"+	c #10233B",
"@	c #4EA1F3",
"#	c #F2C94C",
"$	c #FFFFFF",
"................",
".++++++++++++++.",
".++++++++++++++.",
".+++@@+++++++++.",
".++@@@@++++++++.",
".+++@@+++++++++.",
".++++@++++###++.",
".++++@+++#####++",
".++++@++###$###.",
".++++@+++#####++",
".++++@++++###++.",
".+++@@+++++++++.",
".++@@@@++++++++.",
".+++@@+++++++++.",
".++++++++++++++.",
"................"
};
